<svg width="604" height="449" viewBox="0 0 604 449" fill="none" xmlns="http://www.w3.org/2000/svg">
<rect width="604" height="449" rx="10" fill="#F1F1F1"/>
<rect x="367" y="51" width="59" height="13" fill="#333333" fill-opacity="0.25"/>
<rect x="33" y="113" width="227" height="29" fill="#333333" fill-opacity="0.25"/>
<rect x="411" y="110" width="169" height="65" fill="#333333" fill-opacity="0.25"/>
<rect x="496" y="204" width="80" height="116" fill="#333333" fill-opacity="0.25"/>
<rect x="416" y="355" width="160" height="62" fill="#333333" fill-opacity="0.25"/>
<rect x="35" y="387" width="88" height="28" rx="14" fill="#333333" fill-opacity="0.25"/>
<rect x="33" y="151" width="79" height="25" fill="#333333" fill-opacity="0.25"/>
<rect x="33" y="198" width="227" height="18" fill="#333333" fill-opacity="0.25"/>
<rect x="33" y="225" width="227" height="18" fill="#333333" fill-opacity="0.25"/>
<rect x="33" y="252" width="227" height="18" fill="#333333" fill-opacity="0.25"/>
<rect x="33" y="279" width="227" height="18" fill="#333333" fill-opacity="0.25"/>
<rect x="33" y="306" width="227" height="18" fill="#333333" fill-opacity="0.25"/>
<rect x="33" y="333" width="227" height="18" fill="#333333" fill-opacity="0.25"/>
<rect x="33" y="360" width="227" height="18" fill="#333333" fill-opacity="0.25"/>
<rect x="442" y="51" width="59" height="13" fill="#333333" fill-opacity="0.25"/>
<rect x="517" y="51" width="59" height="13" fill="#333333" fill-opacity="0.25"/>
<ellipse cx="57.5" cy="57" rx="24.5" ry="24" fill="#333333" fill-opacity="0.25"/>
</svg>
